<svg xmlns="http://www.w3.org/2000/svg" viewBox="0 0 965.78 904.85">
  <defs>
    <style>
      .a {
        fill: #6fb5a3;
      }

      .b {
        fill: #ba6e6e;
      }

      .c {
        fill: #b7eadc;
      }

      .d {
        fill: #338785;
      }

      .e {
        fill: #9d3fa0;
      }

      .f {
        fill: #ea8aed;
      }

      .g {
        fill: #5b265e;
      }

      .h {
        fill: #716eb7;
      }

      .i {
        fill: #b8b7ed;
      }

      .j {
        fill: #504d99;
      }

      .k {
        fill: #d1d169;
      }

      .l {
        fill: #f9f7aa;
      }

      .m {
        fill: #a89b3f;
      }

      .n {
        fill: #994b4b;
      }

      .o {
        fill: #efb6b6;
      }

      .p {
        fill: #fff;
      }

      .p, .r {
        opacity: 0.15;
      }

      .q {
        fill: #b22a30;
      }

      .s {
        fill: #182e44;
      }

      .t {
        fill: #000102;
      }

      .u {
        fill: #154918;
      }

      .v {
        fill: #227522;
      }

      .w {
        fill: #3ea33e;
      }

      .x {
        fill: #89ef90;
      }

      .y {
        fill: #26602b;
      }

      .z {
        fill: #041733;
      }

      .aa {
        fill: #f2888f;
      }

      .ab {
        fill: #721116;
      }

      .ac {
        fill: #2b47af;
      }

      .ad {
        fill: #8990ef;
      }

      .ae {
        fill: #121270;
      }

      .af {
        fill: none;
      }
    </style>
  </defs>
  <title>pixelpop</title>
  <g>
    <g>
      <path class="a" d="M179,274.53a145.57,145.57,0,0,1,281.22-75.35s45.82,138.14-84.88,245.67C208.43,417.08,179,274.53,179,274.53Z" transform="translate(-23.42 -9.43)"/>
      <path class="b" d="M382.74,438.6s36.76,45,5.22,53.17-22.08-48.65-22.08-48.65S372,438.25,382.74,438.6Z" transform="translate(-23.42 -9.43)"/>
      <path class="c" d="M257.6,131.65c-44,22-83.23,84.91-39.62,168.56s-17.13-87.65,50.74-127S321.22,99.88,257.6,131.65Z" transform="translate(-23.42 -9.43)"/>
      <path class="d" d="M375.38,444.85A278.05,278.05,0,0,1,312.62,427c163-51.91,147.64-227.78,147.64-227.78S506.08,337.32,375.38,444.85Z" transform="translate(-23.42 -9.43)"/>
      <path class="a" d="M365.16,448.84c14.09,9.05,21-5.64,21-5.64,8.35,11.67,27.09,42,1.75,48.57S363.74,463.05,365.16,448.84Z" transform="translate(-23.42 -9.43)"/>
      <path class="d" d="M365.16,448.84c.35-3.5.72-5.72.72-5.72s6.09-4.87,16.86-4.52c0,0,1.43,1.74,3.47,4.6C386.21,443.2,379.25,457.89,365.16,448.84Z" transform="translate(-23.42 -9.43)"/>
    </g>
    <g>
      <path class="e" d="M801.41,265.75A140,140,0,1,0,531,193.28S486.9,326.13,612.59,429.54C773.15,402.83,801.41,265.75,801.41,265.75Z" transform="translate(-23.42 -9.43)"/>
      <path class="b" d="M605.51,423.53s-35.35,43.23-5,51.14,21.23-46.8,21.23-46.8S615.87,423.19,605.51,423.53Z" transform="translate(-23.42 -9.43)"/>
      <path class="f" d="M725.87,128.33c42.35,21.14,80,81.66,38.09,162.11s16.48-84.3-48.79-122.17S664.68,97.78,725.87,128.33Z" transform="translate(-23.42 -9.43)"/>
      <path class="g" d="M612.59,429.54A267.09,267.09,0,0,0,673,412.33c-156.74-49.91-142-219-142-219S486.9,326.13,612.59,429.54Z" transform="translate(-23.42 -9.43)"/>
      <path class="e" d="M622.42,433.38c-13.55,8.7-20.24-5.43-20.24-5.43-8,11.22-26,40.37-1.68,46.72S623.79,447,622.42,433.38Z" transform="translate(-23.42 -9.43)"/>
      <path class="g" d="M622.42,433.38c-.34-3.37-.69-5.51-.69-5.51s-5.86-4.68-16.22-4.34c0,0-1.37,1.67-3.33,4.42C602.18,428,608.87,442.08,622.42,433.38Z" transform="translate(-23.42 -9.43)"/>
    </g>
    <g>
      <path class="h" d="M48.33,404.45A135,135,0,0,1,268.48,248.21s84.4,105.3,5.48,240.94C119.87,518.88,48.33,404.45,48.33,404.45Z" transform="translate(-23.42 -9.43)"/>
      <path class="b" d="M278.34,481.34S324.8,508.56,300,525.88s-34.89-35.17-34.89-35.17S268.86,484.52,278.34,481.34Z" transform="translate(-23.42 -9.43)"/>
      <path class="i" d="M70.51,254.89C39.33,288.21,25.57,355.56,90.46,414.2s-43.17-70.67,3.13-126.8S115.57,206.75,70.51,254.89Z" transform="translate(-23.42 -9.43)"/>
      <path class="j" d="M274,489.15a257.83,257.83,0,0,1-60.33,4.7c124.93-97.71,54.85-245.64,54.85-245.64S352.88,353.51,274,489.15Z" transform="translate(-23.42 -9.43)"/>
      <path class="h" d="M266.36,495.92c15.17,3.32,16.48-11.7,16.48-11.7,11,7.45,37.09,27.75,17.19,41.66S269.71,508.73,266.36,495.92Z" transform="translate(-23.42 -9.43)"/>
      <path class="j" d="M266.36,495.92c-.82-3.16-1.22-5.21-1.22-5.21s3.72-6.19,13.2-9.37c0,0,1.8,1.06,4.5,2.88C282.84,484.22,281.53,499.24,266.36,495.92Z" transform="translate(-23.42 -9.43)"/>
    </g>
    <g>
      <path class="k" d="M949.38,418.62A135.94,135.94,0,0,0,757.12,226.37S655.56,316.7,711.06,464.69C859.05,520.19,949.38,418.62,949.38,418.62Z" transform="translate(-23.42 -9.43)"/>
      <path class="b" d="M708,456.2s-50.72,19.19-29,40.57,40.58-29,40.58-29S716.89,461,708,456.2Z" transform="translate(-23.42 -9.43)"/>
      <path class="l" d="M952.56,266.38c25.35,38.35,27.66,107.54-46.67,154.83s54.78-62.9,18.28-126.44S915.94,211,952.56,266.38Z" transform="translate(-23.42 -9.43)"/>
      <path class="m" d="M711.06,464.69a259.69,259.69,0,0,0,59.11,14.84c-107.58-118.09-13-253.16-13-253.16S655.56,316.7,711.06,464.69Z" transform="translate(-23.42 -9.43)"/>
      <path class="k" d="M717.46,472.69c-15.62.75-14.39-14.39-14.39-14.39-12.2,5.54-41.51,21.3-24.1,38.47S712,484.85,717.46,472.69Z" transform="translate(-23.42 -9.43)"/>
      <path class="m" d="M717.46,472.69c1.35-3,2.09-5,2.09-5S716.89,461,708,456.2c0,0-2,.74-4.95,2.1C703.07,458.3,701.84,473.44,717.46,472.69Z" transform="translate(-23.42 -9.43)"/>
    </g>
    <g>
      <g>
        <path class="b" d="M665,176.25a166.83,166.83,0,0,0-333.65,0S321.56,342.76,498.13,423C674.7,342.76,665,176.25,665,176.25Z" transform="translate(-23.42 -9.43)"/>
        <path class="b" d="M488.13,418.28s-27.35,60.67,10,60.41,10-60.41,10-60.41S500,414.7,488.13,418.28Z" transform="translate(-23.42 -9.43)"/>
        <path class="b" d="M510.63,424.4c-12.91,14.21-25,0-25,0-5.78,15.4-17.53,54.5,12.48,54.29S516.42,439.72,510.63,424.4Z" transform="translate(-23.42 -9.43)"/>
        <path class="n" d="M510.63,424.4c-1.43-3.76-2.5-6.12-2.5-6.12s-8.18-3.58-20,0c0,0-1.06,2.36-2.48,6.12C485.66,424.41,497.72,438.61,510.63,424.4Z" transform="translate(-23.42 -9.43)"/>
      </g>
      <path class="o" d="M614.41,111.5c-31.65-62.73-104-64.2-116.28-64-12.27-.21-84.63,1.26-116.28,64C347.5,179.56,430.72,78,497.25,79.44v.06c.29,0,.59,0,.88,0s.59,0,.88,0v-.06C565.54,78,648.76,179.56,614.41,111.5Z" transform="translate(-23.42 -9.43)"/>
    </g>
  </g>
  <g>
    <path class="p" d="M500,914.28A365.69,365.69,0,0,1,338.73,876.8c-49.33-24-93.63-58.4-131.67-102.18s-67.9-94.77-88.77-151.55A536.34,536.34,0,0,1,85.72,437.46c0-10.88,2.15-22.67,3.27-28a210,210,0,0,1,25.1-74.73c20.23-35.33,60-77.41,134.78-77.69,20.49-21.51,67.77-60.43,141.57-60.43,34.94,0,71.56,9,109,26.67,38.34-18.56,75.87-28,111.65-28,73.78,0,121.08,38.92,141.57,60.43,74.75.28,114.54,42.36,134.77,77.68a210.73,210.73,0,0,1,24.14,68.17A38.64,38.64,0,0,1,913.74,413c.36,8.1.54,16.34.54,24.49a536.3,536.3,0,0,1-32.57,185.61C860.85,679.85,831,730.84,792.94,774.62S710.6,852.78,661.27,876.8A365.69,365.69,0,0,1,500,914.28Z" transform="translate(-23.42 -9.43)"/>
    <path class="q" d="M500,914.28A365.69,365.69,0,0,1,338.73,876.8c-49.33-24-93.63-58.4-131.67-102.18s-67.9-94.77-88.77-151.55A536.34,536.34,0,0,1,85.72,437.46c0-10.88,2.15-22.67,3.27-28a210,210,0,0,1,25.1-74.73c20.23-35.33,60-77.41,134.78-77.69,20.49-21.51,67.77-60.43,141.57-60.43,34.94,0,71.56,9,109,26.67,38.34-18.56,75.87-28,111.65-28,73.78,0,121.08,38.92,141.57,60.43,74.75.28,114.54,42.36,134.77,77.68a210.73,210.73,0,0,1,24.14,68.17A38.64,38.64,0,0,1,913.74,413c.36,8.1.54,16.34.54,24.49a536.3,536.3,0,0,1-32.57,185.61C860.85,679.85,831,730.84,792.94,774.62S710.6,852.78,661.27,876.8A365.69,365.69,0,0,1,500,914.28Z" transform="translate(-23.42 -9.43)"/>
    <path class="p" d="M500,914.28A365.69,365.69,0,0,1,338.73,876.8c-49.33-24-93.63-58.4-131.67-102.18s-67.9-94.77-88.77-151.55A536.34,536.34,0,0,1,85.72,437.46c0-10.88,2.15-22.67,3.27-28a210,210,0,0,1,25.1-74.73c20.23-35.33,60-77.41,134.78-77.69,20.49-21.51,67.77-60.43,141.57-60.43,34.94,0,71.56,9,109,26.67,38.34-18.56,75.87-28,111.65-28,73.78,0,121.08,38.92,141.57,60.43,74.75.28,114.54,42.36,134.77,77.68a210.73,210.73,0,0,1,24.14,68.17A38.64,38.64,0,0,1,913.74,413c.36,8.1.54,16.34.54,24.49a536.3,536.3,0,0,1-32.57,185.61C860.85,679.85,831,730.84,792.94,774.62S710.6,852.78,661.27,876.8A365.69,365.69,0,0,1,500,914.28Z" transform="translate(-23.42 -9.43)"/>
    <path class="q" d="M500,914.28a373.41,373.41,0,0,1-161.27-36.55c-49.33-23.42-93.63-56.94-131.67-99.63s-67.9-92.41-88.77-147.78a511.28,511.28,0,0,1-32.57-181c0-10.6,2.15-22.1,3.27-27.35a201.24,201.24,0,0,1,25.1-72.87c20.23-34.44,60-75.47,134.78-75.75a196.82,196.82,0,0,1,141.57-58.92c34.94,0,71.56,8.74,109,26,38.34-18.09,75.87-27.26,111.65-27.26A196.86,196.86,0,0,1,752.61,272.1c74.75.28,114.54,41.31,134.77,75.75a202,202,0,0,1,24.14,66.47,36.89,36.89,0,0,1,2.22,11.13c.36,7.91.54,15.94.54,23.88a511.28,511.28,0,0,1-32.57,181C860.85,685.69,831,735.41,792.94,778.1s-82.34,76.21-131.67,99.63A373.41,373.41,0,0,1,500,914.28Z" transform="translate(-23.42 -9.43)"/>
    <path class="r" d="M500,899.28a363.68,363.68,0,0,1-155.42-34.77c-47.55-22.28-90.25-54.18-126.91-94.8s-65.46-87.94-85.57-140.62a481,481,0,0,1-31.38-172.2c0-9.42,2.21-20.25,3-23.89a179.56,179.56,0,0,1,22.87-65.91c18.27-30.71,54.45-67.31,123-67.31,1.7,0,3.42,0,5.16.07,14.84-16.27,60.42-58.24,135.65-58.24,34.78,0,71.42,9.12,109,27.11,38.5-18.82,76-28.35,111.58-28.35,75.22,0,120.81,42,135.65,58.24,1.74-.05,3.46-.07,5.16-.07,68.56,0,104.74,36.6,123,67.31a181,181,0,0,1,22.25,61.52,17.94,17.94,0,0,1,1.65,6.78c.35,7.53.52,15.18.52,22.74a481,481,0,0,1-31.38,172.2c-20.11,52.68-48.9,100-85.57,140.62S703,842.23,655.42,864.51A363.68,363.68,0,0,1,500,899.28Z" transform="translate(-23.42 -9.43)"/>
    <path class="k" d="M500,899.28a374.48,374.48,0,0,1-155.42-33.57C297,844.2,254.33,813.41,217.67,774.2A428.32,428.32,0,0,1,132.1,638.46a450.12,450.12,0,0,1-31.38-166.23c0-9.1,2.21-19.55,3-23.07a169.26,169.26,0,0,1,22.87-63.62c18.27-29.64,54.45-65,123-65,1.7,0,3.42,0,5.16.07,14.84-15.7,60.42-56.22,135.65-56.22,34.78,0,71.42,8.8,109,26.17,38.5-18.16,76-27.37,111.58-27.37,75.22,0,120.81,40.52,135.65,56.22q2.61-.06,5.16-.06c68.56,0,104.74,35.33,123,65a170.82,170.82,0,0,1,22.25,59.39,16.84,16.84,0,0,1,1.65,6.55c.35,7.26.52,14.65.52,22A450.12,450.12,0,0,1,867.9,638.46,428.32,428.32,0,0,1,782.33,774.2c-36.66,39.21-79.36,70-126.91,91.51A374.48,374.48,0,0,1,500,899.28Z" transform="translate(-23.42 -9.43)"/>
    <path class="r" d="M883.78,467l-.81-.15s-12-118.55-142.5-111.25c0,0-82.7-102.37-241-26.64C342.86,255.39,261,356.71,261,356.71,130.51,349.41,118.51,468,118.51,468s-2.79,11-2.79,19.4c0,219.21,172,396.92,384.28,396.92S884.28,706.57,884.28,487.36Q884.28,477.09,883.78,467Z" transform="translate(-23.42 -9.43)"/>
    <path class="s" d="M883.78,480.24l-.81-.14s-12-114.77-142.5-107.71c0,0-82.7-99.11-241-25.78C342.86,275.42,261,373.51,261,373.51c-130.5-7.06-142.5,107.71-142.5,107.71s-2.79,10.62-2.79,18.78c0,212.23,172,384.28,384.28,384.28S884.28,712.23,884.28,500Q884.28,490.06,883.78,480.24Z" transform="translate(-23.42 -9.43)"/>
  </g>
  <g>
    <g>
      <path class="t" d="M838.56,543.5c-1.22-8.81-20.21-9-20.21-9h0c-13.85-2-37.1,4.44-59-2.29-9.35-2.88-16-4.49-20.47-6.17l1.21.44c-5.34-8.45,0-30.19,5.83-53.79s6.59-43.3,5.13-55.49,2.2-19.71,5.13-32.67-7.85-9.22-7.85-9.22h0c-3.22-.48-8.49.14-15.35-.09-10.17-.34-17.56-3.17-22.87-4.86-10.66-5.61-20.12-7.35-19.63,6.65.46,13.05-3.12,16-6.38,47.42-7.77-11.38-20.29-22-41.44-29.53-32.49-11.5-100.3-6.22-106.81,76.24.06-.72.13-1.41.2-2.12h0s-5.89,41,10.07,72.48,65.94,53.08,104.2,37a147.67,147.67,0,0,0,24.88-13.14c13.48,13,43,12.16,56.32,13.14,17.58,1.3,13.68,5.7,35.66,6.71a329.91,329.91,0,0,1,58.36,8.33C839.54,596.92,839.78,552.32,838.56,543.5Zm-7.66,5c0-.29,0-.58,0-.85C830.87,547.88,830.89,548.17,830.9,548.46Zm-.08-1.3c0-.25,0-.5-.07-.74C830.78,546.66,830.8,546.91,830.82,547.16ZM830.7,546l-.12-.78Zm-.17-1.08c-.07-.34-.14-.66-.22-1C830.39,544.25,830.46,544.58,830.53,544.92Zm-.31-1.3q-.09-.33-.18-.63Q830.13,543.29,830.22,543.62Zm-.31-1c-.06-.18-.13-.35-.2-.52C829.78,542.27,829.85,542.44,829.91,542.62Zm-.34-.88-.24-.51Zm-.39-.81c-.13-.25-.26-.49-.41-.72C828.92,540.44,829.05,540.68,829.18,540.93Zm-.58-1-.3-.43Zm-.53-.73-.29-.34Zm-.54-.63-.32-.31ZM584.68,496.75a7.57,7.57,0,0,0-1.8,1.77A7.57,7.57,0,0,1,584.68,496.75Zm5.76-1.79c-.4,0-.79.06-1.16.11C589.65,495,590,495,590.44,495Zm-1.77.22a9.6,9.6,0,0,0-1,.22A9.6,9.6,0,0,1,588.67,495.18Zm-1.52.38c-.3.1-.58.21-.86.33C586.57,495.77,586.85,495.66,587.15,495.56Zm-1.32.53a7.42,7.42,0,0,0-.83.47A6.63,6.63,0,0,1,585.83,496.09Zm7.09-1.16c-.67,0-1.3,0-1.91,0C591.62,494.89,592.25,494.89,592.92,494.93Zm7.25.1,3.12-.06-3.12.06c-1,0-1.92,0-2.79,0C598.25,495.05,599.19,495.05,600.17,495Zm8.35-.25c1.85-.08,3.79-.18,5.8-.31-2,.13-4,.23-5.8.31-1.23.06-2.41.1-3.55.14C606.11,494.88,607.29,494.84,608.52,494.78Zm18.69-1.29-2.4.21Zm13.92-1.5c-1.57.2-3.14.38-4.7.56C638,492.37,639.56,492.19,641.13,492Zm9.77-1.35c-2.46.37-4.94.72-7.41,1.05C646,491.36,648.44,491,650.9,490.64Zm-69.38,11.61c-.28,2.71.61,5.93,2.67,9.22,0,0-2.68-9.19,12.39-5.57s22.71-6.22,35.41-3.83,23.2-3.17,31.75-7.58A31.57,31.57,0,0,1,675,491.41c-.67,4.14-1.32,8.24-2,12.27-7.38-3.26-13.58-4.05-14.19.67-1.46,11.41-18.56,32.67-49.33,23.85C590,522.6,580.68,510.24,581.52,502.25Zm1.3-3.63a6.51,6.51,0,0,0-.56,1A6.51,6.51,0,0,1,582.82,498.62Zm-.65,1.17a6.35,6.35,0,0,0-.36,1A7.59,7.59,0,0,1,582.17,499.79Zm-.42,1.2a9.31,9.31,0,0,0-.21,1.1A9.31,9.31,0,0,1,581.75,501Zm150.84,21.23c.17.2.35.4.54.59C732.94,522.62,732.76,522.42,732.59,522.22Zm-2-6.38c0,.36,0,.71,0,1C730.65,516.55,730.64,516.2,730.63,515.84Zm.06,1.22c0,.33.06.66.11,1C730.75,517.72,730.72,517.39,730.69,517.06Zm.12,1c.05.29.1.57.17.84C730.91,518.66,730.86,518.38,730.81,518.09Zm.2,1a7.76,7.76,0,0,0,.25.82A7.76,7.76,0,0,1,731,519.07Zm.28.91a7.17,7.17,0,0,0,.3.69A7.17,7.17,0,0,1,731.29,520Zm.35.79a4.7,4.7,0,0,0,.39.69A4.7,4.7,0,0,1,731.64,520.77Zm.45.79c.14.2.28.4.44.59C732.37,522,732.23,521.76,732.09,521.56Zm-1.44-6.89c0,.4,0,.79,0,1.16C730.63,515.46,730.63,515.07,730.65,514.67Zm6.21-35.73c-.05.26-.09.51-.14.77C736.77,479.45,736.81,479.2,736.86,478.94Zm-.7,3.88-.06.3Zm-.56,3c-.05.24-.09.49-.14.73C735.51,486.32,735.55,486.07,735.6,485.83Zm-.66,3.45-.09.46Zm-.51,2.67c-.06.27-.11.53-.16.78C734.32,492.48,734.37,492.21,734.43,492Zm-.58,2.93q-.54,2.79-1,5.22Q733.31,497.67,733.85,494.88Zm-1.06,5.41c-.13.72-.27,1.41-.4,2.09C732.52,501.7,732.66,501,732.79,500.29Zm-.42,2.21-.37,2Zm-.42,2.25c-.11.61-.21,1.22-.31,1.79C731.74,506,731.84,505.36,732,504.75Zm-.33,1.86c-.1.59-.19,1.16-.28,1.71C731.43,507.77,731.52,507.2,731.62,506.61Zm-.32,2c-.17,1.09-.31,2.1-.41,3.05C731,510.68,731.13,509.67,731.3,508.58Zm-.44,3.28c-.1.94-.17,1.8-.2,2.61C730.69,513.66,730.76,512.8,730.86,511.86Zm-60.62,48.67a107.87,107.87,0,0,1-18.67,10.18A107.87,107.87,0,0,0,670.24,560.53ZM820.1,534.82l-.28-.05ZM827,538l-.43-.37Zm-.87-.71-.36-.26Zm-.71-.48-.34-.21Zm-.72-.42a3.84,3.84,0,0,0-.35-.18A3.84,3.84,0,0,1,824.65,536.41Zm-.76-.38-.34-.15Zm-1.19-.48-.32-.12Zm-.82-.28-.35-.1ZM821,535l-.35-.08Zm-82.25-9c-.77-.29-1.47-.58-2.11-.88C737.29,525.4,738,525.69,738.76,526Zm-5.52-3.08a7.73,7.73,0,0,0,.6.52A7.73,7.73,0,0,1,733.24,522.9Zm.64.56a7.88,7.88,0,0,0,.73.51A7.88,7.88,0,0,1,733.88,523.46Zm.87.6a8.91,8.91,0,0,0,.8.48A8.91,8.91,0,0,1,734.75,524.06Zm.81.49c.29.16.59.31.91.47C736.15,524.86,735.85,524.71,735.56,524.55Zm5.73-75c-.29,2.43-.61,4.94-1,7.58C740.68,454.45,741,451.94,741.29,449.51Zm1.49-14.36c-.36,4.1-.81,8.56-1.38,13.44C742,443.71,742.42,439.25,742.78,435.15Zm7.08-48.58.19-.46Zm.6-1.48.18-.49Zm.5-1.36.15-.45Zm.4-1.25.12-.38Zm.32-1.16c0-.1.05-.19.07-.28C751.73,381.13,751.7,381.22,751.68,381.32Zm.23-1.14a.29.29,0,0,1,0-.09A.29.29,0,0,0,751.91,380.18Zm-.22-2.95a.54.54,0,0,1-.05-.11A.54.54,0,0,0,751.69,377.23Zm.31,1.22a.22.22,0,0,1,0-.08A.22.22,0,0,0,752,378.45Zm-.11-.65,0-.12Zm-.5-1.07-.06-.07Zm-.42-.44,0,0Zm-4.44,19.84a46.2,46.2,0,0,1,1.41-4.83,46.2,46.2,0,0,0-1.41,4.83c-.26,1.11-.48,2.23-.69,3.39C746.05,398.36,746.27,397.24,746.53,396.13Zm-1,5.16c-.36,2.38-.63,4.92-.87,7.68C744.93,406.21,745.2,403.67,745.56,401.29Zm-2.49,30.42c.58-7.18.92-13.19,1.29-18.43C744,418.52,743.65,424.53,743.07,431.71Zm-43-59.95v0Zm-.27.57v0Zm-.71,2.11,0,.1Zm-.19.8c0,.05,0,.11,0,.17S698.85,375.29,698.86,375.24Zm-.18.91,0,.15Zm-.34,2.14a1.36,1.36,0,0,1,0,.2A1.36,1.36,0,0,0,698.34,378.29Zm-.12,1.08c0,.12,0,.23,0,.35C698.19,379.6,698.21,379.49,698.22,379.37Zm-.12,1.16,0,.41Zm-.1,1.27,0,.39Zm-3.25,26.4-.87,5.71Zm-74.2,169a66.14,66.14,0,0,0,11.44-.81,83.7,83.7,0,0,0,15.32-4,83.7,83.7,0,0,1-15.32,4A66.14,66.14,0,0,1,620.55,577.24Zm163.13,4.4,2.68.4Zm47.23-31.5c0-.45,0-.87,0-1.29C830.92,549.27,830.92,549.69,830.91,550.14Zm-.66,6.59c.1-.56.17-1.1.25-1.63C830.42,555.63,830.35,556.17,830.25,556.73Zm.31-2.12c0-.37.09-.73.12-1.08C830.65,553.88,830.6,554.24,830.56,554.61Zm.18-1.62c0-.33,0-.66.08-1C830.79,552.33,830.77,552.66,830.74,553Zm.11-1.47c0-.4,0-.78,0-1.16C830.89,550.74,830.87,551.12,830.85,551.52Z" transform="translate(-23.42 -9.43)"/>
      <path class="t" d="M394.37,425.7c0,11.49,14.4,11.23,14.4,20s21.5,40.89,26.14,46.25,10.69,13.32,15.27,16.33h0c-6.74,23.37-41.87,77.5-46.28,86.27-1.72,3.41-2.06,6-1.06,7.49h0s-.74,11.52,13.75,3.92,39.56,4,44.61-5.36,3.76-18.5,7.91-27,5.83-21.63,8.65-23.7q1.44,2.74,2.81,5.46c10.51,21,21.74,46.42,37.37,38.38s19.29-10.37,27.11-9.34A19.47,19.47,0,0,0,558,581.92c8.76-.65,3.21-7.23-17-30.9-15-17.58-28.68-42.54-40.63-62.65h0S514.93,461,519,447.82s13.84-22.3,18.72-33.19,3.12-16-4.57-14.18a23,23,0,0,0-3.89.87c-9.45,2.76-33.22,4.49-41,5.53s-19.33,39.94-19.33,40c-9.43-14.83-14.64-34.62-23-34.08,0,0-3.91-6.31-18.32,0S394.37,414.21,394.37,425.7Zm5.76,4.88a20.6,20.6,0,0,0,2.71,3A20.6,20.6,0,0,1,400.13,430.58Zm5.43,5.57-.59-.62Zm.8.93.63.76Zm1.4,1.75.24.31Zm5.34,163.76-.16,0Zm-.61-180.66,2.81-.56Zm2,180.21.11,0Zm1.7-.62.16-.07Zm1.59-.64.48-.2Zm1.73-.75.5-.22Zm44.85-40.55c-1.84,5.48-3.74,11-5.58,15.93-.52,1.41-1,2.77-1.56,4.07s-1,2.54-1.51,3.7-1,2.23-1.45,3.22c.47-1,1-2.07,1.45-3.22s1-2.4,1.51-3.7,1-2.66,1.56-4.07c1.84-4.93,3.74-10.45,5.58-15.93.79-2.35,1.57-4.7,2.33-7l1.22-3.7-1.22,3.7C465.93,554.88,465.15,557.23,464.36,559.58Zm5.23-15.69c-.4,1.18-.81,2.41-1.23,3.67.42-1.26.83-2.49,1.23-3.67.45-1.36.9-2.67,1.32-3.91C470.49,541.22,470,542.53,469.59,543.89Zm80.51,37.72-1.63-.16Zm3.92.3h0Zm-1.09-.07-.47,0Zm-1.34-.1-.79-.07Zm-16-177.89-.06.19Zm-.21.59-.1.27Zm-.28.69-.14.32Zm-.34.76-.18.36Zm-.41.83-.23.44Zm.38-6.21.07,0Zm.32.11.07,0Zm.27.14,0,0Zm.6,1.29v0Zm0,.43s0,.1,0,.15S535.9,402.52,535.91,402.48Zm-.08.48h0Zm0-1.55a.08.08,0,0,1,0,0A.08.08,0,0,0,535.81,401.41Zm.08.28a.36.36,0,0,0,0,.1A.36.36,0,0,1,535.89,401.69ZM533.66,408l-.27.5Zm-.57,1-.31.54Zm-.63,1.08c-.12.2-.24.41-.37.61C532.22,410.54,532.34,410.33,532.46,410.13Zm-.7,1.17-.44.7Zm-.77,1.24-.72,1.14Zm-1,1.57c-.23.36-.47.74-.73,1.12C529.52,414.85,529.76,414.47,530,414.11Zm-4.39,6.61-1.23,1.8Zm3.3-4.94c-.2.32-.42.64-.63,1C528.49,416.42,528.7,416.1,528.9,415.78Zm-1,1.59c-.22.33-.45.66-.67,1C527.41,418,527.64,417.7,527.86,417.37Zm-1.1,1.64-.78,1.15Zm-7.23,11.25q1.07-1.87,2.26-3.81-1.2,1.94-2.26,3.81c-1.06,1.88-2,3.72-2.9,5.53C517.51,434,518.47,432.14,519.53,430.26Zm-7.47,16.18c-.45,1.16-.89,2.33-1.32,3.49l-1.29,3.51a185.66,185.66,0,0,1-7.91,19.25,185.66,185.66,0,0,0,7.91-19.25l1.29-3.51c.43-1.16.87-2.33,1.32-3.49,1.12-2.92,2.32-5.85,3.71-8.84C514.38,440.59,513.18,443.52,512.06,446.44Zm-68-33.55c-.58.07-1.11.14-1.61.23C442.91,413,443.44,413,444,412.89Zm-3,.51q-.88.23-1.62.48Q440.14,413.63,441,413.4Zm-4.31,1.71-1,.6Zm2-1c-.61.25-1.15.52-1.68.8C437.6,414.64,438.14,414.37,438.75,414.12ZM433.21,417c-.57.28-1.21.55-1.93.82C432,417.59,432.64,417.32,433.21,417ZM428,418.87c.52-.12,1-.25,1.45-.38-.46.13-.93.26-1.45.38s-1.24.29-1.93.43l-10.1,1.94,10.1-1.95C426.72,419.16,427.36,419,428,418.87Zm-18.87,3.8c-.86.2-1.67.4-2.42.6C407.42,423.07,408.23,422.87,409.09,422.67Zm-7.79,2.54a7.24,7.24,0,0,0-1,.64A7.24,7.24,0,0,1,401.3,425.21Zm-2.15,2.45a2.18,2.18,0,0,0,0,.51A2.18,2.18,0,0,1,399.15,427.66Z" transform="translate(-23.42 -9.43)"/>
      <path class="t" d="M409.33,617c-31.45-18.9-65.4,11.24-65.4,11.24s11.8-21.23,8.63-27.88c-1.87-3.95-16.71-8-29.05-8h-.39l-1.38,0-.66,0-1.08.06-.68.05-1,.11-.62.07c-.42,0-.82.11-1.22.18l-.36.06c-.5.09-1,.19-1.46.3l-.45.12-1,.27-.49.17c-.29.09-.56.2-.83.3l-.46.19c-.28.13-.56.26-.82.4l-.33.17a10,10,0,0,0-1,.64l-.19.16c-.24.19-.47.38-.68.58s-.18.19-.27.28-.32.37-.46.56-.16.21-.23.32-.25.43-.36.65a3,3,0,0,0-.15.31,5.76,5.76,0,0,0-.34,1h0s-2.47,11.1-6.07,28.19c-.05.21-.09.42-.14.63-.2.94-.4,1.9-.61,2.88,0,.22-.09.44-.13.66-2,9.44-4.26,20.42-6.62,32.19-.06.26-.11.53-.16.79-.28,1.38-.56,2.76-.83,4.16s-.62,3.07-.92,4.63c-.19.94-.38,1.88-.56,2.82-.4,2.05-.81,4.11-1.21,6.19l-.16.81c-.28,1.45-.57,2.91-.85,4.37-.46,2.39-.92,4.8-1.38,7.21-.58,3.06-1.15,6.13-1.73,9.2-1.25,6.76-2.48,13.52-3.64,20.17-.23,1.29-.45,2.58-.67,3.86-.05.27-.09.54-.14.8-.39,2.24-.76,4.46-1.13,6.65-.13.78-.26,1.54-.38,2.31-.38,2.3-.76,4.58-1.11,6.82l-.42,2.61c-.31,2-.61,3.93-.9,5.85l-.42,2.82q-.45,3-.85,5.94c-.38,2.73-.74,5.38-1.06,7.94-.16,1.28-.31,2.54-.46,3.77s-.28,2.44-.41,3.63-.25,2.34-.36,3.47-.22,2.23-.31,3.3-.18,2.12-.26,3.13c-.11,1.52-.2,3-.27,4.36,0,.91-.07,1.8-.1,2.65s0,1.67,0,2.46c0,.39,0,.77,0,1.14,0,1.49.08,2.84.19,4,.33,3.56,1.1,5.69,2.38,6,13.73,3.87,44.91,11.59,47.79,2.3s9.75-84.53,9.75-84.53,22.43,60.11,69.11,20.16S440.78,635.85,409.33,617Z" transform="translate(-23.42 -9.43)"/>
      <path class="t" d="M698.38,598.39c-35.76-5.54-57.14,35.6-57.14,35.6s3.76-24.33-1.45-29.31c-3.22-3.08-19.55-.9-31.19,4.25l-.17.07c-.44.2-.88.4-1.3.61l-.11,0c-.42.2-.83.41-1.23.62l-.08,0c-.4.21-.79.43-1.18.65l-.18.1c-.38.22-.76.45-1.12.68l0,0c-.36.23-.7.46-1,.69l-.14.1c-.33.23-.64.46-.94.7l-.15.12a17.52,17.52,0,0,0-1.66,1.5l-.14.14c-.24.25-.46.51-.66.76l-.1.12c-.19.25-.37.49-.53.74l-.06.09a9.16,9.16,0,0,0-.46.8l-.08.16a8.33,8.33,0,0,0-.34.82l0,.08a5.64,5.64,0,0,0-.21.78l0,.15a8,8,0,0,0-.09.84v.17a6.35,6.35,0,0,0,.05.87s26.91,205,41.12,206.55a.92.92,0,0,0,.33,0l1.36-.16c14.69-1.8,44.44-6.58,44-16-.48-9.77-19.7-82.55-19.7-82.55s41.38,47.43,71.3-7.74S734.14,603.94,698.38,598.39Z" transform="translate(-23.42 -9.43)"/>
      <path class="t" d="M538.28,657.29c.91.47,1.81,1,2.7,1.48a60,60,0,0,0-24-7.85c-39.71-4-75.52,32.89-80,82.49a108.46,108.46,0,0,0,4.81,43.66h0s16.3,76,79,66,78.77-76.57,65.08-130.86C577.78,680.25,555.37,664.69,538.28,657.29ZM489.43,828.21c-.86-.26-1.71-.54-2.56-.85C487.72,827.67,488.57,828,489.43,828.21Zm-3.16-1.06c-1-.37-2-.77-3-1.19C484.27,826.38,485.26,826.78,486.27,827.15Zm-3.68-1.5c-.81-.36-1.6-.74-2.39-1.13C481,824.91,481.78,825.29,482.59,825.65Zm-3.08-1.47c-.95-.49-1.9-1-2.82-1.54C477.61,823.18,478.56,823.69,479.51,824.18Zm-3.37-1.87c-.78-.46-1.55-.94-2.31-1.43C474.59,821.37,475.36,821.85,476.14,822.31Zm-3-1.9c-.89-.6-1.78-1.22-2.66-1.86C471.34,819.19,472.23,819.81,473.12,820.41Zm27.63,10.11c-1.1-.11-2.19-.27-3.27-.44C498.56,830.25,499.65,830.41,500.75,830.52Zm-4.14-.59c-.95-.16-1.89-.35-2.83-.56C494.72,829.58,495.66,829.77,496.61,829.93Zm-3.25-.65c-1.05-.24-2.1-.52-3.13-.82C491.26,828.76,492.31,829,493.36,829.28Zm70.18-149.63c.56.79,1.12,1.6,1.67,2.42C564.66,681.25,564.1,680.44,563.54,679.65Zm-4.71-6c.47.54.92,1.08,1.38,1.63C559.75,674.76,559.3,674.22,558.83,673.68Zm2.26,2.72c.6.76,1.2,1.53,1.78,2.32C562.29,677.93,561.69,677.16,561.09,676.4Zm-3.25-3.84c-.46-.51-.93-1-1.4-1.5C556.91,671.55,557.38,672.05,557.84,672.56Zm9.32,12.59-1.2-1.92Zm-19.32-21.81c.54.41,1.07.84,1.61,1.27C548.91,664.18,548.38,663.75,547.84,663.34Zm2.66,2.12c.83.69,1.65,1.41,2.45,2.15C552.15,666.87,551.33,666.15,550.5,665.46Zm3.26,2.92c.56.53,1.12,1.07,1.67,1.63C554.88,669.45,554.32,668.91,553.76,668.38Zm-9.92-7.85c-.58-.38-1.18-.74-1.77-1.1C542.66,659.79,543.26,660.15,543.84,660.53Zm2.8,1.93c-.52-.38-1-.75-1.58-1.11C545.59,661.71,546.12,662.08,546.64,662.46ZM470.12,818.28q-1.15-.87-2.28-1.8Q469,817.41,470.12,818.28Zm-10.51-9.7c.66.74,1.32,1.45,2,2.15C460.93,810,460.27,809.32,459.61,808.58Zm-17.79-31.36c.38,1.13.78,2.25,1.19,3.35C442.6,779.46,442.2,778.35,441.82,777.22Zm1.55,4.3c.38,1,.78,2,1.2,3C444.15,783.52,443.75,782.53,443.37,781.52Zm1.38,3.44c.48,1.1,1,2.19,1.48,3.26C445.72,787.15,445.23,786.06,444.75,785Zm1.9,4.13c.44.89.88,1.77,1.34,2.64C447.53,790.86,447.09,790,446.65,789.09Zm1.67,3.28c.56,1,1.13,2,1.72,3C449.45,794.42,448.88,793.4,448.32,792.37Zm2.17,3.79c.49.82,1,1.62,1.51,2.41C451.48,797.78,451,797,450.49,796.16Zm2,3.12q1,1.44,1.95,2.82Q453.41,800.72,452.45,799.28Zm2.38,3.4c.56.76,1.13,1.51,1.72,2.25C456,804.19,455.39,803.44,454.83,802.68Zm2.28,3c.71.87,1.43,1.74,2.17,2.58C458.54,807.38,457.82,806.51,457.11,805.64Zm7.53,8.08c-.81-.76-1.61-1.54-2.4-2.33C463,812.18,463.83,813,464.64,813.72Zm.05,0c.81.74,1.63,1.46,2.46,2.15C466.32,815.22,465.5,814.5,464.69,813.76Zm102.73-22.42a101.67,101.67,0,0,0,9.05-21.1c.77-2.52,1.43-5.11,2-7.74-.59,2.63-1.25,5.22-2,7.74A101.67,101.67,0,0,1,567.42,791.34Zm.49-104.91c.38.66.76,1.32,1.12,2C568.67,687.75,568.29,687.09,567.91,686.43Zm1.8,3.23c.44.83.86,1.67,1.27,2.51C570.57,691.33,570.15,690.49,569.71,689.66Zm1.67,3.31c.52,1.09,1,2.21,1.51,3.33C572.4,695.18,571.9,694.06,571.38,693Zm2,4.49c.32.78.64,1.57,1,2.37C574,699,573.69,698.24,573.37,697.46Zm1.46,3.73c.28.77.56,1.54.82,2.32C575.39,702.73,575.11,702,574.83,701.19Zm1.28,3.67c.28.9.56,1.8.83,2.71C576.67,706.66,576.39,705.76,576.11,704.86Zm2.77,55.85A112.82,112.82,0,0,0,580.76,748c.13-1.42.23-2.84.3-4.25-.07,1.41-.17,2.83-.3,4.25A112.82,112.82,0,0,1,578.88,760.71Zm-1.64-52.14c.34,1.24.67,2.48,1,3.74C577.91,711.05,577.58,709.81,577.24,708.57Zm1.2,4.75c.22.95.44,1.9.63,2.86C578.88,715.22,578.66,714.27,578.44,713.32Zm.9,4.26c.16.86.31,1.73.46,2.6C579.65,719.31,579.5,718.44,579.34,717.58Zm.68,4c.14.94.27,1.89.38,2.85C580.29,723.51,580.16,722.56,580,721.62Zm.53,4c.15,1.34.28,2.69.38,4.05C580.83,728.33,580.7,727,580.55,725.64Zm.56,16.82c0-1,.07-2,.09-2.94C581.18,740.5,581.15,741.47,581.11,742.46Zm.1-4.43c0-.95,0-1.89,0-2.84C581.2,736.14,581.21,737.08,581.21,738Zm-.24-7.65c.07,1.14.13,2.28.17,3.43C581.1,732.66,581,731.52,581,730.38Z" transform="translate(-23.42 -9.43)"/>
      <path class="t" d="M325,532.64a107.38,107.38,0,0,0,11.63-26.46c5.44,21.69,11.12,44.38,12.12,55.74a36.32,36.32,0,0,0,1.26,7.25s2.67,17.36,20.48,7.91,27-13.43,36.78-10.38,14.65,1.83,13.51-4.57-2.55-18.61.16-24.41-21.71-36.3-23.15-61.32,3.73-31.63-2.3-35.95-4.12-6.21-31.32,1.41a277.12,277.12,0,0,1-27.65,6.05c-7.65-26.22-25-46.18-44.47-50.32-38.31-8.13-63.59,35-63.59,35s5.36-26,0-31.72c-3.31-3.52-21.06-2.15-33.9,2.71l-.18.07q-.74.27-1.44.57l-.11.05-1.37.59-.08,0-1.32.63-.19.1c-.43.22-.85.44-1.25.67l0,0c-.39.22-.77.45-1.14.68l-.16.1c-.37.23-.72.46-1.06.7l-.16.12a19.73,19.73,0,0,0-1.88,1.52l-.15.15c-.27.25-.52.51-.76.78l-.11.12c-.22.25-.42.5-.61.76l-.07.1c-.2.27-.37.55-.54.83l-.09.17a6.71,6.71,0,0,0-.41.86,1,1,0,0,0,0,.1c-.1.27-.19.55-.26.82,0,.06,0,.11,0,.16a7,7,0,0,0-.14.9,1.09,1.09,0,0,1,0,.18,6,6,0,0,0,0,.95s6.48,79.82,15,144.48c.23,1.7.45,3.39.68,5.07.67,5,1.36,10,2.06,14.73.23,1.59.47,3.17.7,4.72s.47,3.09.71,4.6l.36,2.25c1.06,6.72,2.15,13,3.25,18.66.12.63.24,1.26.36,1.87,3.54,17.85,7.17,29.31,10.64,29.1h.13c15.39-.95,49.67-4.22,49.67-14.76s-16.85-90.31-16.85-90.31S289.71,590.4,325,532.64ZM387.13,442h0l.2,0h0Zm-.56-.06h0l.21,0h0Zm-.61,0Zm2.48.49h0l.14.08h0Zm-.38-.17h0l.16.06h0Zm1.25,1.38,0-.11h0l0,.11Zm-.08-.34s0-.08-.05-.12h0s0,.08.05.12Zm-.15-.31-.08-.1h0l.08.1Zm.05,120.63-1.84.68Zm-2.28.85-1.74.68Zm-2.22.87-1.3.53Zm-2.18.9-1.05.44Zm9.32-3.55,2.14-.7Zm-2.25.79,2-.69Zm18.51-11c.18-.31.35-.61.52-.93C408.38,551.84,408.21,552.14,408,552.45Zm1.84-4.52c.11-.46.2-.92.27-1.39C410.07,547,410,547.47,409.87,547.93Zm.4-2.39q.09-.85.12-1.74Q410.36,544.68,410.27,545.54Zm.12-2.69q0-.47,0-.93Q410.39,542.39,410.39,542.85Zm-1.88-11c.41,1.45.77,2.85,1.06,4.22.14.69.27,1.36.38,2-.11-.66-.24-1.33-.38-2-.29-1.37-.65-2.77-1.06-4.22-1.44-5-3.57-10.54-5.9-16.41-1.55-3.89-3.18-7.95-4.76-12.14h0c1.58,4.19,3.21,8.25,4.76,12.14C404.94,521.27,407.07,526.76,408.51,531.81Zm-19.65-89.15h0v0l-.1-.07h0l.1.07Zm-1.06-.55h0l-.18-.05h0Zm-2.28-.24Z" transform="translate(-23.42 -9.43)"/>
      <path class="t" d="M366.71,423.93c47.12-7.32,35.31-79.11-6-76.47a30.54,30.54,0,0,0-4.3-.31c-18.19,0-32.94,15.66-32.94,35h0S319.6,431.25,366.71,423.93Zm7-12.08c.73-.48,1.43-1,2.12-1.52C375.17,410.87,374.47,411.37,373.74,411.85Zm5.92-5a36,36,0,0,0,9.65-24.74c0-.58,0-1.16,0-1.73,0,.57,0,1.15,0,1.73A36,36,0,0,1,379.66,406.87ZM386,366.79c-.1-.23-.21-.44-.31-.66C385.76,366.35,385.87,366.56,386,366.79Zm3.26,13c0-.38,0-.77-.08-1.15C389.19,379.07,389.21,379.46,389.23,379.84Zm-.15-1.82-.12-1Zm-.23-1.73c-.06-.31-.11-.63-.16-.94C388.74,375.66,388.79,376,388.85,376.29Zm-.31-1.67c-.06-.3-.13-.6-.2-.9C388.41,374,388.48,374.32,388.54,374.62Zm-.38-1.64c-.07-.29-.15-.58-.23-.86C388,372.4,388.09,372.69,388.16,373Zm-.44-1.6-.27-.82Zm-.52-1.57c-.09-.26-.19-.52-.29-.78C387,369.29,387.11,369.55,387.2,369.81Zm-.58-1.53c-.1-.25-.21-.49-.31-.73C386.41,367.79,386.52,368,386.62,368.28ZM380.23,358l-.26-.29Zm5,7.3-.27-.5ZM383,361.55l-.13-.19Zm-.83-1.15-.22-.3Zm-.94-1.2-.25-.31Zm-5.53-5.39-.09-.06Zm3.47,3.09-.25-.26Zm-1.11-1.08-.23-.21Zm-1.16-1-.18-.15Z" transform="translate(-23.42 -9.43)"/>
    </g>
    <path class="b" d="M746.57,388.55c-25.59-.81-33.48-16.52-34.93,7.74S683,548.64,693.2,553s-4.85,16.08,71.32,24.54,72.3,17.19,78.6-19.2-34-12.36-70.35-22.92-31-2.78-21.83-53,4.36-66.24,11.64-81.76S762.58,389.06,746.57,388.55Z" transform="translate(-23.42 -9.43)"/>
    <path class="n" d="M762.58,400.66c-7.28,15.52-2.42,31.53-11.64,81.76-7.07,38.51-11.86,42.92,2.7,47.64-5.3-7.91,0-28.24,5.79-50.32s6.55-40.51,5.09-51.91,2.19-18.44,5.1-30.57-7.79-8.62-7.8-8.62C766.13,389.25,766.76,391.75,762.58,400.66Z" transform="translate(-23.42 -9.43)"/>
    <path class="n" d="M851.37,546c-1.21-8.25-20.07-8.41-20.07-8.41,9.32,1.24,14.37,6.08,11.82,20.78-6.3,36.39-2.42,27.66-78.6,19.2S703.39,557.37,693.2,553s17-132.45,18.44-156.71c.88-14.69,4.12-14.72,12.22-12.29h0c-10.59-5.25-20-6.88-19.5,6.22s-3.64,15.29-7,51.19S682.77,521,682.28,550.09s45.37,27.42,62.84,28.63,13.58,5.34,35.41,6.28a347.37,347.37,0,0,1,58,7.79C852.34,595.94,852.58,554.22,851.37,546Z" transform="translate(-23.42 -9.43)"/>
    <path class="o" d="M754.58,396.53c-20.74,2.08-38.09-9.46-35.91-2.18s4.25,10.91-.18,33.23-9.47,39.26-2.3,43.12,11.34-24.44,10.91-48.7,4.65-19.16,9.27-14.07S766.71,395.32,754.58,396.53Z" transform="translate(-23.42 -9.43)"/>
    <path class="o" d="M739.29,535.54c-2.81,6.12-5.33,14.8,1.22,16.25s18-1.94,37.11,3.64,48.77,13.33,51.92,6.79,5.09-15.77,0-14.8-8.74,2.43-30.57-.48-28.38-3.88-36.87-7.76S741.32,531.13,739.29,535.54Z" transform="translate(-23.42 -9.43)"/>
    <path class="n" d="M717.09,518.31c-9.86-5.33-13.92-12.85-2.74-11.94S728.89,513.46,727,480s-25.21-60.52-25.21-60.52h0c-7.22,44.87-23.58,130-15.3,133.54,6.49,2.79,2.73,8.56,18.91,14.57,5.17-5.39,10.11-12.1,16.5-20.15C735,530.93,727,523.65,717.09,518.31Z" transform="translate(-23.42 -9.43)"/>
    <path class="u" d="M548,412.14h0c5.2-.49,3.43,4-8.72,20.64-14.56,20-14,34.29-27.72,55.58S494,523.15,488.48,536.62s-16.81,50.67-22.63,55.2-12-1.3-28.46,6.14c-10.68,4.82-17,5.41-18.81,2.8h0s-.74,10.78,13.65,3.66,39.3,3.72,44.31-5,3.74-17.31,7.86-25.23S490.17,554,493,552s14.45-31.2,14.45-31.2l8-26.43s14.48-25.65,18.52-37.94,13.75-20.86,18.6-31.05S555.64,410.48,548,412.14Z" transform="translate(-23.42 -9.43)"/>
    <path class="v" d="M484.17,455.51s11.44-36.42,19.2-37.39,31.38-2.59,40.76-5.17,9.7-.12-4.85,19.83-14,34.29-27.72,55.58S494,523.15,488.48,536.62s-16.81,50.67-22.63,55.2-12-1.3-28.46,6.14-22.62,4.86-17.78-4.2,46.93-69.93,47.07-86.56,18.11-28.27,17.7-29.24S484.17,455.51,484.17,455.51Z" transform="translate(-23.42 -9.43)"/>
    <path class="w" d="M441.59,429.77c-24.59,4.49-33,5.17-22,14.23s32,54.34,43,59.84S512.43,576.29,523.1,586s20.06-6.47,40.11-4.53,17.79-.65-7.44-28.47-46.58-75.36-62.43-87.33-21.34-42.7-32-42.05S452.58,427.76,441.59,429.77Z" transform="translate(-23.42 -9.43)"/>
    <path class="x" d="M430.59,440.44c13.85-3.5,28.14-9.36,30.09-4.68s24.25,33.14,20.05,35.41-11.32-15.43-20.7-12.08-13.91-8.2-15.85,0S429.29,447.23,428.65,444,425.64,441.69,430.59,440.44Z" transform="translate(-23.42 -9.43)"/>
    <path class="x" d="M503.75,497.89c-3.83,5,28.86,56.69,33,53.6S507.18,493.42,503.75,497.89Z" transform="translate(-23.42 -9.43)"/>
    <path class="x" d="M468.38,513.86S424,592.72,428.5,592.72s43.88-73.63,43.88-73.63c-1.39-1.88-2.73-3.63-4-5.23Z" transform="translate(-23.42 -9.43)"/>
    <path class="x" d="M493.34,465.67s13.64-30.73,15.72-35.9,15.66-6.47,19.22-8.09c8.83-4-21-2.91-25.56,8.73s-12.88,32.14-12.88,32.14A31,31,0,0,0,493.34,465.67Z" transform="translate(-23.42 -9.43)"/>
    <path class="y" d="M563.21,581.47c-20.05-1.94-29.43,14.23-40.11,4.53s-49.49-76.66-60.48-82.16-32-50.78-43-59.84-2.61-9.74,22-14.23c11-2,9.06-5.5,19.73-6.15,0,0-3.88-5.9-18.19,0s-33,1.39-33,12.14,14.31,10.5,14.31,18.75,21.35,38.25,26,43.26,10.62,12.46,15.16,15.28,19.75,24.43,30.19,44.08,21.6,43.42,37.13,35.9,19.16-9.7,26.93-8.73a20.25,20.25,0,0,0,12.85-2.39A64.67,64.67,0,0,1,563.21,581.47Z" transform="translate(-23.42 -9.43)"/>
    <path class="h" d="M656.85,407c-32.27-10.75-99.62-5.82-106.09,71.33s57.09,104.31,95.42,98.49,70.84-39.42,66.47-49.06-38.33-29.06-39.79-18.38-18.43,30.56-49,22.32-35.9-32.18-16.5-31.13S717.8,495.27,713,475.86,706.34,423.46,656.85,407Z" transform="translate(-23.42 -9.43)"/>
    <path class="z" d="M626.29,442.62c-23.93,1.15-32,23.37-27.66,30.49s50.46,1.29,51.43-7.44S651.52,441.41,626.29,442.62Z" transform="translate(-23.42 -9.43)"/>
    <path class="i" d="M654.43,444c-10.68-20.06-59.19-12.88-56.28,19.68h0c2.36-9.06,11.34-20.25,28.14-21.06,25.23-1.21,24.74,14.32,23.77,23.05C650.06,465.67,665.1,464.05,654.43,444Z" transform="translate(-23.42 -9.43)"/>
    <path class="i" d="M594.59,554.3c-32.43-16.21-40.44-63.72-28.79-97.69s42.7-26.92,45.28-35.61,59.52,15.88,59.52,33,19.49-5.41,8.73-23.94-41.72-23.61-64.69-20-56.68,20-59.39,71.6,41.28,90.12,50.33,80.1S603.64,558.83,594.59,554.3Z" transform="translate(-23.42 -9.43)"/>
    <path class="i" d="M692.38,524.62c-9.9,2-17.18,22.4-47.07,22.06s-9.28,13.05,19.24,2.4S698,523.52,692.38,524.62Z" transform="translate(-23.42 -9.43)"/>
    <path class="j" d="M712.65,527.72c4.37,9.64-28.14,43.24-66.47,49.06s-101.89-21.35-95.42-98.49c0-.67.13-1.32.19-2h0s-5.84,38.37,10,67.81,65.5,49.65,103.5,34.61,49.65-33.64,51.59-41.4S712.65,527.72,712.65,527.72Z" transform="translate(-23.42 -9.43)"/>
    <path class="j" d="M607.36,500.53c-11.26-.61-14.17,7.2-8.66,15.47,0,0-2.67-8.6,12.3-5.21s22.56-5.82,35.18-3.59,23-3,31.54-7.08,16.25-2.18,28.86-5.58S713,475.86,713,475.86C717.8,495.27,626.77,501.57,607.36,500.53Z" transform="translate(-23.42 -9.43)"/>
    <g>
      <path class="q" d="M323,598.19s-45.13,191.42-31.5,195,44.61,10.84,47.46,2.15,9.69-79.08,9.69-79.08,22.28,56.24,68.65,18.86,39-102.8,7.74-120.48-65,10.51-65,10.51,11.72-19.86,8.58-26.08S325.71,586.32,323,598.19Z" transform="translate(-23.42 -9.43)"/>
      <path class="aa" d="M386.09,625.28c20.4-17.64,51,4,48.86,23.84s.84,43.08-7.75,23.58-2.49-34.72-21.37-38.15S379.1,631.32,386.09,625.28Z" transform="translate(-23.42 -9.43)"/>
      <path class="z" d="M357.69,650.36s15-19.65,32.61-6.75,3.45,58.25-16.92,59.34S335,678.68,357.69,650.36Z" transform="translate(-23.42 -9.43)"/>
      <path class="ab" d="M390.3,643.61c-12.07-8.83-22.89-2.41-28.52,2.52,0,0,14.38-6.28,24.43,2.86s9,26.51,2.16,44.44C399.17,679.16,403,652.92,390.3,643.61Z" transform="translate(-23.42 -9.43)"/>
      <path class="aa" d="M395.09,690.45c-2.28,5.91-8.26,21.74-26.52,19.81s-11.77,8.18,4.26,7.89,20.5-11,23.8-20S397.17,685.06,395.09,690.45Z" transform="translate(-23.42 -9.43)"/>
      <path class="ab" d="M315.17,704.75c10.08-25,6.61-42.66,11.2-78s13.38-35.13,13.38-35.13h0c-8.42,0-15.67,1.77-16.79,6.6,0,0-45.13,191.42-31.5,195,3.37.9,7.79,2,12.59,3h0C296.34,783.88,305.09,729.79,315.17,704.75Z" transform="translate(-23.42 -9.43)"/>
      <path class="ac" d="M611,618.85s27.16,194.79,41.18,193.23,45.51-6,45-15.16-19.57-77.23-19.57-77.23,41.1,44.37,70.82-7.25-.84-109.93-36.36-115.12-56.77,33.3-56.77,33.3,3.74-22.76-1.44-27.42S609.3,606.79,611,618.85Z" transform="translate(-23.42 -9.43)"/>
      <path class="ad" d="M678.91,623.58c12.64-23.83,48.93-14.74,54.17,4.55s16.37,39.86,1.3,24.79-14.87-31.48-33.72-27.84S674.58,631.74,678.91,623.58Z" transform="translate(-23.42 -9.43)"/>
      <path class="z" d="M662.28,654.93s6.86-23.74,28-18.09,24.29,53.07,5.69,61.44S651.41,689.52,662.28,654.93Z" transform="translate(-23.42 -9.43)"/>
      <path class="ae" d="M690.24,636.84c-14.44-3.87-22.21,6-25.68,12.67,0,0,11.14-11,23.81-6.17s18,21.46,18.09,40.65C711.36,666.78,705.47,640.92,690.24,636.84Z" transform="translate(-23.42 -9.43)"/>
      <path class="ad" d="M711.65,678.78c0,6.34.16,23.25-17.56,28.06s-8,11.88,6.83,5.81,15.1-17.71,15-27.22S711.64,673,711.65,678.78Z" transform="translate(-23.42 -9.43)"/>
      <path class="ae" d="M642.31,721c.35-27-9.26-42.17-17.78-76.79s-.23-37.6-.23-37.6h0c-7.85,3-14,7.31-13.27,12.22,0,0,27.16,194.79,41.18,193.23,3.46-.38,8-.94,12.84-1.71h0C653.38,801.6,642,748,642.31,721Z" transform="translate(-23.42 -9.43)"/>
      <ellipse class="k" cx="523.87" cy="730.47" rx="84.4" ry="71.75" transform="matrix(0.1, -1, 1, 0.1, -276.64, 1172.88)"/>
      <ellipse class="z" cx="516.33" cy="728.95" rx="43.25" ry="26.96" transform="matrix(0.1, -1, 1, 0.1, -281.94, 1163.99)"/>
      <path class="af" d="M537.64,664.43h0Z" transform="translate(-23.42 -9.43)"/>
      <path class="m" d="M499.73,714.29c5.35-28.62,19.62-28.45,20.66-28.4-14.8-1.36-28.62,16.74-30.89,40.49s7.89,44.2,22.71,45.62a17.49,17.49,0,0,0,4.4-.15C498.37,768,494.17,744,499.73,714.29Z" transform="translate(-23.42 -9.43)"/>
      <path class="l" d="M496.38,666.24C511,653,558.3,649.18,573.69,690.08s-9.29,43-16.31,25.66,2.07-16.52-13.92-22.07S532.64,669.38,521,673,477.09,683.73,496.38,666.24Z" transform="translate(-23.42 -9.43)"/>
      <path class="l" d="M550.19,738.28c.35,15.05-8.13,35.18-30.78,40s-19.6-9.24-32.17-7.34,3.93,26.56,36.69,12.21,30.1-40.53,29.39-50.29S549.86,723.87,550.19,738.28Z" transform="translate(-23.42 -9.43)"/>
      <path class="m" d="M553.09,652.42c27.88,13.52,45.8,47.33,42.2,84.9-4.44,46.39-40,80.94-79.47,77.16-27.13-2.59-49-22.65-58.6-50,0,0,16.19,71.1,78.46,61.74s78.24-71.64,64.64-122.43C592.32,673.91,570.07,659.35,553.09,652.42Z" transform="translate(-23.42 -9.43)"/>
    </g>
    <path class="e" d="M198.1,427s18.26,211.82,33.48,210.94,49.48-3.93,49.48-13.82-16.75-84.48-16.75-84.48,41.86,50.23,76.87-3.81,5.33-118.73-32.72-126.34-63.18,32.73-63.18,32.73,5.33-24.36,0-29.68S196.91,413.86,198.1,427Z" transform="translate(-23.42 -9.43)"/>
    <path class="k" d="M343.47,462c9.58,3.83,62.41-17.51,61.64-9.14s-3,25.88,7.61,53.28,25.12,48.71-3,57.08-42.62,24.36-44.9,0S335.85,458.93,343.47,462Z" transform="translate(-23.42 -9.43)"/>
    <circle class="k" cx="348.97" cy="385.57" r="32.73"/>
    <path class="f" d="M265.07,432.1c15-25,53.66-13.12,58.23,8s15.41,43.95,0,26.82S309,432.1,288.48,435,259.94,440.67,265.07,432.1Z" transform="translate(-23.42 -9.43)"/>
    <path class="z" d="M251.37,468.83s8.76-25.24,31.21-17.95,23.21,58.67,2.66,66.66S237.67,505.55,251.37,468.83Z" transform="translate(-23.42 -9.43)"/>
    <path class="g" d="M282.58,450.88c-15.37-5-24.32,5.26-28.44,12.22,0,0,12.65-11.3,26.06-5.31S298.37,482,297.42,502.7C303.69,484.4,298.79,456.15,282.58,450.88Z" transform="translate(-23.42 -9.43)"/>
    <path class="f" d="M313.2,495.38c-.37,7.27-1.21,26.68-21.83,31.13s-9.9,13.14,7.48,7.07,18.39-19.4,18.8-30.32S313.54,488.76,313.2,495.38Z" transform="translate(-23.42 -9.43)"/>
    <path class="g" d="M226.07,539c1.9-29.11-7.61-46-14.84-83.91s1.88-40.6,1.88-40.6h0c-8.65,2.83-15.5,7.1-15,12.44,0,0,18.26,211.82,33.48,210.94,3.77-.22,8.69-.57,14-1.12h0C233.45,626.65,224.16,568.15,226.07,539Z" transform="translate(-23.42 -9.43)"/>
    <path class="af" d="M343.47,462a6.72,6.72,0,0,0,1.37.33C344,462.09,343.47,462,343.47,462Z" transform="translate(-23.42 -9.43)"/>
    <path class="l" d="M405.11,452.84c.73-8-47.88,11.29-60.27,9.47,5.44,1.38,25.44,7.27,30.12,20.31,5.42,15.13,20.26,3.14,24.26,16.56s14.37,9.14,14.38,9.14c-.3-.73-.59-1.46-.88-2.2C402.07,478.72,404.35,461.22,405.11,452.84Z" transform="translate(-23.42 -9.43)"/>
    <path class="m" d="M413.49,483.19c-1.43-23.4,3.71-29.59-2.29-33.63s-4.09-5.81-31.11,1.32-38.15,5-36.62,11.1c9.58,3.83,62.41-17.51,61.64-9.14s-3,25.88,7.61,53.28,25.12,48.71-3,57.08c-25,7.42-39.16,20.81-43.65,6.78h0s2.66,16.24,20.35,7.39,26.83-12.56,36.53-9.71,14.56,1.72,13.42-4.28-2.53-17.41.16-22.83S414.91,506.6,413.49,483.19Z" transform="translate(-23.42 -9.43)"/>
    <path class="l" d="M376.38,369.88c-16.94-10-32.25,9.7-28.25,29.11s8,20.27,15.69,20.56-14.39-18.07-7.05-18.88-4-22.51,5.11-19.94S384.09,374.45,376.38,369.88Z" transform="translate(-23.42 -9.43)"/>
    <path class="m" d="M376.66,362.56a32.73,32.73,0,1,1-37,32.44s-3.81,45.95,43,39.1S417.74,360.09,376.66,362.56Z" transform="translate(-23.42 -9.43)"/>
  </g>
</svg>
